<svg width="31" height="31" viewBox="0 0 31 31" fill="none" xmlns="http://www.w3.org/2000/svg">
<path d="M10.4815 4.00704C12.0223 -0.907597 18.9777 -0.907597 20.5185 4.00704C21.2062 6.20034 23.2533 7.69302 25.5519 7.69302C30.7013 7.69302 32.9536 14.2441 28.84 17.3415L28.5369 17.5697C26.7102 18.9452 25.9469 21.3215 26.631 23.5034L26.7898 24.0099C28.3118 28.8646 22.7124 32.8167 18.648 29.7564C16.784 28.3528 14.216 28.3528 12.352 29.7564C8.2876 32.8167 2.68816 28.8646 4.21022 24.0099L4.36901 23.5034C5.05308 21.3215 4.28981 18.9452 2.46309 17.5697L2.16004 17.3415C-1.95364 14.2441 0.298686 7.69302 5.44811 7.69302C7.74668 7.69302 9.79385 6.20034 10.4815 4.00704Z" fill="white"/>
</svg>
